<svg width="15" height="15" viewBox="0 0 15 15" fill="none" xmlns="http://www.w3.org/2000/svg">
<path d="M11.8545 6.4336L11.4414 6.1523C11.9245 5.44046 12.2058 4.61104 12.2553 3.75217C12.3048 2.89331 12.1208 2.03706 11.7227 1.2744L11.6392 1.1211L12.0747 0.875L12.1655 1.042C12.6057 1.88492 12.8092 2.83138 12.7545 3.78074C12.6997 4.7301 12.3887 5.64688 11.8545 6.4336ZM13.0066 13.5652V14H2.00661V13.5652H4.49521L6.04391 6.4C6.06802 6.28828 6.12969 6.18819 6.21863 6.11641C6.30757 6.04463 6.41841 6.00549 6.53271 6.0055H7.25821V4.6014C7.00878 4.5436 6.78607 4.40351 6.62596 4.20371C6.46585 4.00391 6.37767 3.75603 6.37561 3.5C6.37561 3.34809 6.40553 3.19766 6.46366 3.05731C6.5218 2.91696 6.60701 2.78944 6.71443 2.68202C6.82185 2.5746 6.94937 2.48939 7.08972 2.43126C7.23007 2.37312 7.38049 2.3432 7.53241 2.3432C7.68432 2.3432 7.83475 2.37312 7.9751 2.43126C8.11544 2.48939 8.24297 2.5746 8.35039 2.68202C8.45781 2.78944 8.54302 2.91696 8.60115 3.05731C8.65929 3.19766 8.68921 3.34809 8.68921 3.5C8.68701 3.76446 8.59293 4.01992 8.42308 4.22264C8.25324 4.42536 8.01819 4.56272 7.75821 4.6112V6.0059H8.48051C8.59473 6.00589 8.70551 6.04499 8.79442 6.11669C8.88333 6.18839 8.94502 6.28837 8.96921 6.4L10.517 13.5648L13.0066 13.5652ZM8.45431 8.751H6.55881L6.23601 10.2441H8.77701L8.45431 8.751ZM6.12791 10.7441L5.80461 12.2393H9.20821L8.88511 10.7441H6.12791ZM6.93601 7.0059L6.66691 8.251H8.34631L8.07711 7.0059H6.93601ZM5.51791 13.5652H9.49481L9.31621 12.7393H5.69621L5.51791 13.5652ZM5.21001 5.0137C4.91132 4.56017 4.75347 4.02841 4.75634 3.48536C4.7592 2.94232 4.92265 2.41226 5.22611 1.9619L4.81201 1.6826C4.45307 2.21469 4.25973 2.84115 4.25635 3.48297C4.25296 4.1248 4.4397 4.75326 4.79301 5.2891L5.21001 5.0137ZM10.7568 3.5C10.7574 2.86519 10.5717 2.24417 10.2227 1.7139L9.80471 1.9893C10.1026 2.44264 10.2599 2.97391 10.2568 3.51636C10.2536 4.05881 10.0902 4.58823 9.78711 5.0381L10.2012 5.3174C10.5642 4.78091 10.7578 4.14777 10.7568 3.5ZM3.53421 6.1182C3.04994 5.38221 2.77927 4.52633 2.75228 3.64572C2.72528 2.76512 2.94303 1.89427 3.38131 1.13L2.94781 0.88C2.46328 1.72478 2.22258 2.68741 2.25249 3.66082C2.28239 4.63422 2.58173 5.58026 3.11721 6.3937L3.53421 6.1182Z" fill="black"/>
</svg>
