<svg width="37" height="40" viewBox="0 0 37 40" fill="none" xmlns="http://www.w3.org/2000/svg">
<path d="M35.5 24.5C27.5125 25.0109 23.3459 23.9247 16.5 19.5C16.5 19.5 12.4342 22.7526 10.5354 24.125C12.6486 24.1264 14.7514 24.2514 15 24.5C15.5 25 15 32.5 15 32.5H10L10 34.5C13.6564 34.4577 19.8347 35.8969 19.5 36.5C19.1653 37.1031 14.011 39.1816 10 39C8.06595 39.0215 1.54346 37.7865 1 36.5C0.99918 35.6624 7.38428 34.2051 10 34.5L10 32.5H6C6 32.5 5.50001 25 6.00001 24.5C6.2514 24.2486 8.39868 24.1236 10.5354 24.125C12.4342 22.7526 16.5 19.5 16.5 19.5C13.6068 13.0474 13.2676 9.07897 14.5 1.5L25 13L35.5 24.5Z" fill="#2D73E8"/>
<path d="M16.5 19.5C23.3459 23.9247 27.5125 25.0109 35.5 24.5L25 13M16.5 19.5C13.6068 13.0474 13.2676 9.07897 14.5 1.5L25 13M16.5 19.5C16.5 19.5 11.5 23.5 10 24.5M25 13L28.5 10.5M10 32.5H15C15 32.5 15.5 25 15 24.5C14.5 24 6.5 24 6.00001 24.5C5.50001 25 6 32.5 6 32.5H10ZM10 32.5L10 34.5M10 34.5C7.38428 34.2051 0.99918 35.6624 1 36.5C1.54346 37.7865 8.06595 39.0215 10 39C14.011 39.1816 19.1653 37.1031 19.5 36.5C19.8347 35.8969 13.6564 34.4577 10 34.5Z" stroke="#2D73E8" stroke-width="0.7"/>
</svg>
